<?xml version="1.0" standalone="no"?><!DOCTYPE svg PUBLIC "-//W3C//DTD SVG 1.1//EN" "http://www.w3.org/Graphics/SVG/1.1/DTD/svg11.dtd"><svg t="1522047821608" class="icon" style="" viewBox="0 0 1024 1024" version="1.1" xmlns="http://www.w3.org/2000/svg" p-id="1347" xmlns:xlink="http://www.w3.org/1999/xlink" width="200" height="200"><defs><style type="text/css"></style></defs><path d="M501.632 272.512c-35.84 31.488-121.344 110.08-121.344 110.08L246.4 382.592c-9.088 0-23.808-1.024-23.808 32.128l0 195.584c0 15.616 11.648 26.752 24.576 26.752l126.08 0 129.536 112.512c18.816 16.384 48.896 24.832 48.896-13.184L551.68 282.624C551.808 282.624 537.344 241.024 501.632 272.512z" p-id="1348" fill="#707070"></path><path d="M705.536 317.568c-20.608-13.824-50.816 14.464-38.272 31.616 52.992 44.544 84.48 107.136 80.896 175.36-3.2 61.952-34.688 117.12-83.456 157.056-17.024 20.352 23.424 43.392 36.736 33.024 58.496-47.744 96.256-113.92 100.096-188.032C805.76 445.44 768.512 370.816 705.536 317.568z" p-id="1349" fill="#707070"></path><path d="M628.224 378.752c-20.864-15.488-50.304 13.952-37.248 27.904 34.048 29.056 54.272 69.632 51.968 113.664-2.048 38.912-21.12 73.728-50.816 99.456-14.848 18.176 17.664 42.496 35.584 29.312 38.016-32.896 62.336-77.312 64.896-126.976C695.424 466.688 670.464 415.616 628.224 378.752z" p-id="1350" fill="#707070"></path></svg>