<?xml version="1.0" standalone="no"?><!DOCTYPE svg PUBLIC "-//W3C//DTD SVG 1.1//EN" "http://www.w3.org/Graphics/SVG/1.1/DTD/svg11.dtd"><svg t="1522047677532" class="icon" style="" viewBox="0 0 1027 1024" version="1.1" xmlns="http://www.w3.org/2000/svg" p-id="1058" xmlns:xlink="http://www.w3.org/1999/xlink" width="200.5859375" height="200"><defs><style type="text/css"></style></defs><path d="M514.885818 0c-282.321455 0-512 229.678545-512 512s229.678545 512 512 512c282.298182 0 512-229.678545 512-512S797.184 0 514.885818 0zM526.638545 845.591273c-25.693091 0-46.545455-20.852364-46.545455-46.545455 0-25.669818 20.852364-46.522182 46.545455-46.522182 25.693091 0 46.545455 20.852364 46.545455 46.522182C573.184 824.738909 552.331636 845.591273 526.638545 845.591273zM619.147636 527.197091c-62.324364 62.277818-60.718545 60.834909-63.790545 132.189091l-51.968 0c3.118545-78.685091 20.48-105.681455 82.362182-163.118545 30.138182-28.532364 52.945455-62.743273 52.945455-105.099636 0-65.163636-52.945455-109.940364-116.456727-109.940364-88.808727 0-132.794182 61.556364-131.165091 145.454545l-51.316364 0c0.837818-115.642182 66.792727-188.648727 184.925091-188.648727 90.368 0 165.329455 56.203636 165.329455 150.690909C689.989818 448.977455 660.689455 488.122182 619.147636 527.197091z" p-id="1059" fill="#7e5820"></path></svg>