<?xml version="1.0" standalone="no"?><!DOCTYPE svg PUBLIC "-//W3C//DTD SVG 1.1//EN" "http://www.w3.org/Graphics/SVG/1.1/DTD/svg11.dtd"><svg t="1522005920162" class="icon" style="" viewBox="0 0 1088 1024" version="1.1" xmlns="http://www.w3.org/2000/svg" p-id="3539" xmlns:xlink="http://www.w3.org/1999/xlink" width="34" height="32"><defs><style type="text/css"></style></defs><path d="M832.064 408.128c0 76.16-61.728 137.888-137.888 137.888s-137.888-61.728-137.888-137.888c0-76.16 61.728-137.888 137.888-137.888s137.888 61.728 137.888 137.888zM694.176 59.456c-180.768 0-327.296 146.528-327.296 327.296 0 76.64 26.56 146.976 70.688 202.72l-69.856 64.768-33.984-36.672-287.84 266.976 86.56 93.312 287.84-266.944-25.824-27.84 69.184-64.16c24.448 24.256 52.832 44.416 83.872 60.064-13.056 14.944-26.272 32.128-39.648 51.872l0 212.128 384.896 0 0-212.128c0 0-15.296-26.752-42.048-56.608 101.792-55.488 170.848-163.424 170.848-287.52-0.032-180.8-146.56-327.36-327.328-327.36zM837.568 660.48c-59.168-59.328-160.64-116.576-277.184 4.64-103.616-49.92-175.328-155.648-175.328-278.336 0-170.72 138.4-309.12 309.12-309.12s309.12 138.4 309.12 309.12c0 118.912-67.264 222.016-165.696 273.728z" p-id="3540" fill="#515151"></path></svg>